Coordinates
version=1
nRows=13
nColumns=18
inDegrees=yes

Units are S.I. units (second, meters, Newtons, ...)
Angles are in degrees.

endheader
time	ground_thorax_rot_x	ground_thorax_rot_y	ground_thorax_rot_z	ground_thorax_tx	ground_thorax_ty	ground_thorax_tz	clav_prot	clav_elev	scapula_abduction	scapula_elevation	scapula_upward_rot	scapula_winging	plane_elv	shoulder_elv	axial_rot	elbow_flexion	pro_sup
      3.97000000	      0.20721284	     -7.84842611	    -10.18908144	     -0.00423131	      0.00403036	     -0.00078352	    -42.35032412	      8.84498825	      2.49447716	     -1.88857934	     81.64524749	    -10.88456840	     40.52534018	     85.33448897	     -8.31723849	      0.00000000	     34.32000000
      3.98000000	      0.05768260	     -7.86159239	    -10.35424427	     -0.00423131	      0.00403036	     -0.00078352	    -42.25955401	      8.65302137	      2.43632284	     -2.04860188	     81.31209811	    -10.83538078	     40.82463661	     85.35118649	     -8.13373707	      0.00000000	     34.32000000
      3.99000000	      0.18191025	     -7.96666917	    -10.20453598	     -0.00423131	      0.00403036	     -0.00078352	    -42.23426710	      8.97332223	      2.40146255	     -1.82855251	     81.31182076	    -10.90097378	     41.26235814	     84.99391397	     -8.12548139	      0.00000000	     34.32000000
      4.00000000	      0.20363331	     -7.93474878	    -10.34891100	     -0.00423131	      0.00403036	     -0.00078352	    -42.19720121	      8.99230245	      2.43925548	     -1.81541361	     81.28435313	    -10.88844456	     41.32853534	     84.93833347	     -8.13899165	      0.00000000	     34.32000000
      4.01000000	     -0.01833557	     -7.93310682	    -10.42397039	     -0.00423131	      0.00403036	     -0.00078352	    -41.98325131	      8.74074452	      2.47931909	     -2.02233503	     80.78828996	    -10.77769160	     41.80815800	     85.11230105	     -7.93709170	      0.00000000	     34.32000000
      4.02000000	      0.11846669	     -8.12951042	    -10.31280262	     -0.00423131	      0.00403036	     -0.00078352	    -41.69826600	      8.92664938	      2.91306198	     -1.87300456	     80.77241760	    -10.66107093	     41.94364507	     84.96733691	     -8.02434302	      0.00000000	     34.32000000
      4.03000000	      0.16537881	     -8.02004138	    -10.24611796	     -0.00423131	      0.00403036	     -0.00078352	    -41.67857557	      9.07302568	      2.77229601	     -1.79058693	     80.59660085	    -10.71300024	     42.41134711	     84.91807782	     -8.40437492	      0.00000000	     34.32000000
      4.04000000	      0.21162784	     -7.97399827	    -10.22968053	     -0.00423131	      0.00403036	     -0.00078352	    -41.58991593	      9.21105075	      2.72490003	     -1.71145474	     80.38620914	    -10.72763666	     42.92926367	     84.98310437	     -8.18433678	      0.00000000	     34.32000000
      4.05000000	      0.08722882	     -8.16872727	    -10.32329612	     -0.00423131	      0.00403036	     -0.00078352	    -41.35814599	      9.07041563	      3.08353288	     -1.79738391	     80.28918418	    -10.57569743	     43.13074507	     84.77082539	     -8.28691399	      0.00000000	     34.32000000
      4.06000000	      0.13894041	     -8.52552868	    -10.28464117	     -0.00423131	      0.00403036	     -0.00078352	    -40.95105736	      9.08927681	      3.67061355	     -1.76448485	     80.14553560	    -10.37206644	     43.26420942	     84.58093831	     -8.45735436	      0.00000000	     34.32000000
      4.07000000	      0.04719863	     -8.59903857	    -10.36942288	     -0.00423131	      0.00403036	     -0.00078352	    -40.71301603	      8.86779887	      3.82667637	     -1.93538202	     79.75489034	    -10.24517186	     43.50957612	     84.41517762	     -8.76077598	      0.00000000	     34.32000000
      4.08000000	      0.10988134	     -8.87395493	    -10.28775499	     -0.00423131	      0.00403036	     -0.00078352	    -40.26464473	      8.87084006	      4.43844684	     -1.91614893	     79.54527966	    -10.03230781	     43.62448126	     84.14984402	     -8.94393059	      0.00000000	     34.32000000
      4.09000000	     -0.05637258	     -8.77356184	    -10.47128124	     -0.00423131	      0.00403036	     -0.00078352	    -40.05819774	      8.52167124	      4.52197411	     -2.18182450	     79.09558829	     -9.90146772	     44.05712537	     84.26613833	     -8.86805016	      0.00000000	     34.32000000
